<svg width="24" height="24" viewBox="0 0 24 24" fill="none" xmlns="http://www.w3.org/2000/svg">
<path d="M0 8C0 3.58172 3.58172 0 8 0H16C20.4183 0 24 3.58172 24 8V16C24 20.4183 20.4183 24 16 24H8C3.58172 24 0 20.4183 0 16V8Z" fill="#F4F4F5"/>
<path d="M12.2514 5L12.1602 5.31939V14.4753L12.2514 14.5665L16.5024 12.057L12.2514 5Z" fill="#A1A1AA"/>
<path d="M12.2509 5L8 12.057L12.2509 14.5665V5Z" fill="#A1A1AA"/>
<path d="M12.2505 15.5171L12.1973 15.5779V18.8403L12.2505 18.9924L16.5014 13L12.2505 15.5171Z" fill="#A1A1AA"/>
<path d="M12.2509 19V15.5247L8 13.0076L12.2509 19Z" fill="#A1A1AA"/>
<path d="M12.251 14.5666L16.5019 12.057L12.251 10.1255V14.5666Z" fill="#A1A1AA"/>
<path d="M8 12.057L12.2509 14.5666V10.1255L8 12.057Z" fill="#A1A1AA"/>
</svg>
